<svg id="visual" viewBox="0 0 960 300" width="960" height="300" xmlns="http://www.w3.org/2000/svg" xmlns:xlink="http://www.w3.org/1999/xlink" version="1.1"><rect x="0" y="0" width="960" height="300" fill="#fff"></rect><path d="M0 75L26.7 79.3C53.3 83.7 106.7 92.3 160 98.3C213.3 104.3 266.7 107.7 320 106.5C373.3 105.3 426.7 99.7 480 97.7C533.3 95.7 586.7 97.3 640 96.2C693.3 95 746.7 91 800 86.8C853.3 82.7 906.7 78.3 933.3 76.2L960 74L960 0L933.3 0C906.7 0 853.3 0 800 0C746.7 0 693.3 0 640 0C586.7 0 533.3 0 480 0C426.7 0 373.3 0 320 0C266.7 0 213.3 0 160 0C106.7 0 53.3 0 26.7 0L0 0Z" fill="#487558"></path><path d="M0 76L26.7 73C53.3 70 106.7 64 160 64.5C213.3 65 266.7 72 320 75.2C373.3 78.3 426.7 77.7 480 81.2C533.3 84.7 586.7 92.3 640 94.5C693.3 96.7 746.7 93.3 800 91.7C853.3 90 906.7 90 933.3 90L960 90L960 0L933.3 0C906.7 0 853.3 0 800 0C746.7 0 693.3 0 640 0C586.7 0 533.3 0 480 0C426.7 0 373.3 0 320 0C266.7 0 213.3 0 160 0C106.7 0 53.3 0 26.7 0L0 0Z" fill="#3d6c4d"></path><path d="M0 60L26.7 57.5C53.3 55 106.7 50 160 50.8C213.3 51.7 266.7 58.3 320 60.3C373.3 62.3 426.7 59.7 480 56.2C533.3 52.7 586.7 48.3 640 47.2C693.3 46 746.7 48 800 52.7C853.3 57.3 906.7 64.7 933.3 68.3L960 72L960 0L933.3 0C906.7 0 853.3 0 800 0C746.7 0 693.3 0 640 0C586.7 0 533.3 0 480 0C426.7 0 373.3 0 320 0C266.7 0 213.3 0 160 0C106.7 0 53.3 0 26.7 0L0 0Z" fill="#326443"></path><path d="M0 49L26.7 47.7C53.3 46.3 106.7 43.7 160 43.8C213.3 44 266.7 47 320 47.2C373.3 47.3 426.7 44.7 480 42.8C533.3 41 586.7 40 640 38.8C693.3 37.7 746.7 36.3 800 36.2C853.3 36 906.7 37 933.3 37.5L960 38L960 0L933.3 0C906.7 0 853.3 0 800 0C746.7 0 693.3 0 640 0C586.7 0 533.3 0 480 0C426.7 0 373.3 0 320 0C266.7 0 213.3 0 160 0C106.7 0 53.3 0 26.7 0L0 0Z" fill="#265b38"></path><path d="M0 18L26.7 19C53.3 20 106.7 22 160 22.2C213.3 22.3 266.7 20.7 320 19.2C373.3 17.7 426.7 16.3 480 17.2C533.3 18 586.7 21 640 21.8C693.3 22.7 746.7 21.3 800 20.7C853.3 20 906.7 20 933.3 20L960 20L960 0L933.3 0C906.7 0 853.3 0 800 0C746.7 0 693.3 0 640 0C586.7 0 533.3 0 480 0C426.7 0 373.3 0 320 0C266.7 0 213.3 0 160 0C106.7 0 53.3 0 26.7 0L0 0Z" fill="#1a532e"></path></svg>